<svg width="264" height="197" viewBox="0 0 264 197" fill="none" xmlns="http://www.w3.org/2000/svg">
<path d="M112.352 196.859C110.814 196.859 109.199 196.705 107.585 196.244C97.0506 193.63 90.5918 182.942 93.2061 172.408L132.574 14.9346C135.266 4.4005 145.953 -1.98145 156.488 0.555953C167.022 3.24713 173.404 13.935 170.789 24.4691L131.421 181.942C129.191 190.862 121.194 196.859 112.352 196.859Z" fill="#9328FF"/>
<path d="M204.948 157.492C199.873 157.492 194.875 155.57 191.03 151.725C183.341 144.036 183.341 131.579 191.03 123.89L216.481 98.4394L191.03 72.9884C183.341 65.2992 183.341 52.8429 191.03 45.1538C198.719 37.4646 211.176 37.4646 218.865 45.1538L258.233 84.522C265.922 92.2112 265.922 104.668 258.233 112.357L218.865 151.725C215.02 155.57 210.022 157.492 204.948 157.492Z" fill="#4A3AFF"/>
<path d="M59.0524 157.492C53.9776 157.492 48.9797 155.57 45.1351 151.725L5.76684 112.357C-1.92228 104.668 -1.92228 92.2112 5.76684 84.522L45.1351 45.1538C52.8242 37.4646 65.2806 37.4646 72.9697 45.1538C80.6588 52.8429 80.6588 65.2992 72.9697 72.9884L47.5187 98.4394L72.9697 123.89C80.6588 131.579 80.6588 144.036 72.9697 151.725C69.1252 155.57 64.1272 157.492 59.0524 157.492Z" fill="#4A3AFF"/>
</svg>
